<svg xmlns="http://www.w3.org/2000/svg" xmlns:xlink="http://www.w3.org/1999/xlink" xmlns:lucid="lucid" width="1320" height="780"><g transform="translate(-140 -40)" lucid:page-tab-id="0_0"><path d="M0 0h1870.87v1322.84H0z" fill="#fff"/><path d="M880 66a6 6 0 0 1 6-6h148a6 6 0 0 1 6 6v148a6 6 0 0 1-6 6H886a6 6 0 0 1-6-6z" stroke="#5e5e5e" stroke-width="3" fill="#fff"/><use xlink:href="#a" transform="matrix(1,0,0,1,885,65) translate(31.851851851851848 64.65277777777777)"/><use xlink:href="#b" transform="matrix(1,0,0,1,885,65) translate(35.52469135802469 91.31944444444446)"/><path d="M520 246a6 6 0 0 1 6-6h148a6 6 0 0 1 6 6v148a6 6 0 0 1-6 6H526a6 6 0 0 1-6-6z" stroke="#5e5e5e" stroke-width="3" fill="#fff"/><use xlink:href="#c" transform="matrix(1,0,0,1,525,245) translate(38.05555555555556 64.65277777777777)"/><use xlink:href="#d" transform="matrix(1,0,0,1,525,245) translate(39.845679012345684 91.31944444444446)"/><path d="M1200 246a6 6 0 0 1 6-6h148a6 6 0 0 1 6 6v148a6 6 0 0 1-6 6h-148a6 6 0 0 1-6-6z" stroke="#5e5e5e" stroke-width="3" fill="#fff"/><use xlink:href="#e" transform="matrix(1,0,0,1,1205,245) translate(0.03086419753087455 78.71527777777777)"/><use xlink:href="#d" transform="matrix(1,0,0,1,1205,245) translate(79.6604938271605 78.71527777777777)"/><path d="M960 222.5V314a6 6 0 0 1-6 6H700" stroke="#5e5e5e" stroke-width="2" fill="none"/><path d="M961 222.53h-2v-1.03h2z" stroke="#5e5e5e" stroke-width=".05" fill="#5e5e5e"/><path d="M684.74 320l14.26-4.63v9.26z" stroke="#5e5e5e" stroke-width="2" fill="#5e5e5e"/><path d="M960 222.5V314a6 6 0 0 0 6 6h214" stroke="#5e5e5e" stroke-width="2" fill="none"/><path d="M961 222.53h-2v-1.03h2z" stroke="#5e5e5e" stroke-width=".05" fill="#5e5e5e"/><path d="M1195.26 320l-14.26 4.63v-9.26z" stroke="#5e5e5e" stroke-width="2" fill="#5e5e5e"/><path d="M240 446a6 6 0 0 1 6-6h148a6 6 0 0 1 6 6v148a6 6 0 0 1-6 6H246a6 6 0 0 1-6-6z" stroke="#5e5e5e" stroke-width="3" fill="#fff"/><use xlink:href="#f" transform="matrix(1,0,0,1,245,445) translate(23.858024691358025 64.65277777777777)"/><use xlink:href="#g" transform="matrix(1,0,0,1,245,445) translate(89.22839506172839 64.65277777777777)"/><use xlink:href="#h" transform="matrix(1,0,0,1,245,445) translate(21.327160493827158 91.31944444444446)"/><path d="M800 446a6 6 0 0 1 6-6h148a6 6 0 0 1 6 6v148a6 6 0 0 1-6 6H806a6 6 0 0 1-6-6z" stroke="#5e5e5e" stroke-width="3" fill="#fff"/><use xlink:href="#i" transform="matrix(1,0,0,1,805,445) translate(11.512345679012341 64.65277777777777)"/><use xlink:href="#g" transform="matrix(1,0,0,1,805,445) translate(101.57407407407408 64.65277777777777)"/><use xlink:href="#h" transform="matrix(1,0,0,1,805,445) translate(21.327160493827158 91.31944444444446)"/><path d="M600 402.5V514a6 6 0 0 1-6 6H420" stroke="#5e5e5e" stroke-width="2" fill="none"/><path d="M601 402.53h-2v-1.03h2z" stroke="#5e5e5e" stroke-width=".05" fill="#5e5e5e"/><path d="M404.74 520l14.26-4.63v9.26z" stroke="#5e5e5e" stroke-width="2" fill="#5e5e5e"/><path d="M600 402.5V514a6 6 0 0 0 6 6h174" stroke="#5e5e5e" stroke-width="2" fill="none"/><path d="M601 402.53h-2v-1.03h2z" stroke="#5e5e5e" stroke-width=".05" fill="#5e5e5e"/><path d="M795.26 520L781 524.63v-9.26z" stroke="#5e5e5e" stroke-width="2" fill="#5e5e5e"/><path d="M160 646a6 6 0 0 1 6-6h308a6 6 0 0 1 6 6v148a6 6 0 0 1-6 6H166a6 6 0 0 1-6-6z" stroke="#5e5e5e" stroke-width="3" fill="#fff"/><use xlink:href="#j" transform="matrix(1,0,0,1,172,652) translate(64.17283950617283 30.52777777777778)"/><use xlink:href="#k" transform="matrix(1,0,0,1,172,652) translate(90.03703703703704 30.52777777777778)"/><use xlink:href="#l" transform="matrix(1,0,0,1,172,652) translate(127.01234567901234 30.52777777777778)"/><use xlink:href="#m" transform="matrix(1,0,0,1,172,652) translate(167.69135802469137 30.52777777777778)"/><use xlink:href="#n" transform="matrix(1,0,0,1,172,652) translate(59.20370370370371 57.19444444444445)"/><use xlink:href="#k" transform="matrix(1,0,0,1,172,652) translate(85.0679012345679 57.19444444444445)"/><use xlink:href="#o" transform="matrix(1,0,0,1,172,652) translate(122.04320987654322 57.19444444444445)"/><use xlink:href="#p" transform="matrix(1,0,0,1,172,652) translate(207.16666666666669 57.19444444444445)"/><use xlink:href="#q" transform="matrix(1,0,0,1,172,652) translate(60.43827160493828 83.86111111111111)"/><use xlink:href="#r" transform="matrix(1,0,0,1,172,652) translate(86.30246913580248 83.86111111111111)"/><use xlink:href="#s" transform="matrix(1,0,0,1,172,652) translate(122.10493827160494 83.86111111111111)"/><use xlink:href="#t" transform="matrix(1,0,0,1,172,652) translate(193.64814814814815 83.86111111111111)"/><use xlink:href="#u" transform="matrix(1,0,0,1,172,652) translate(54.327160493827165 110.5277777777778)"/><use xlink:href="#v" transform="matrix(1,0,0,1,172,652) translate(80.19135802469137 110.5277777777778)"/><use xlink:href="#s" transform="matrix(1,0,0,1,172,652) translate(128.21604938271605 110.5277777777778)"/><use xlink:href="#w" transform="matrix(1,0,0,1,172,652) translate(199.75925925925927 110.5277777777778)"/><path d="M1120 646a6 6 0 0 1 6-6h308a6 6 0 0 1 6 6v148a6 6 0 0 1-6 6h-308a6 6 0 0 1-6-6z" stroke="#5e5e5e" stroke-width="3" fill="#fff"/><g><use xlink:href="#j" transform="matrix(1,0,0,1,1125,645) translate(71.17283950617283 41.21527777777778)"/><use xlink:href="#k" transform="matrix(1,0,0,1,1125,645) translate(97.03703703703704 41.21527777777778)"/><use xlink:href="#l" transform="matrix(1,0,0,1,1125,645) translate(134.01234567901236 41.21527777777778)"/><use xlink:href="#x" transform="matrix(1,0,0,1,1125,645) translate(174.69135802469137 41.21527777777778)"/><use xlink:href="#y" transform="matrix(1,0,0,1,1125,645) translate(66.20370370370371 67.88194444444446)"/><use xlink:href="#k" transform="matrix(1,0,0,1,1125,645) translate(92.0679012345679 67.88194444444446)"/><use xlink:href="#o" transform="matrix(1,0,0,1,1125,645) translate(129.04320987654322 67.88194444444446)"/><use xlink:href="#z" transform="matrix(1,0,0,1,1125,645) translate(214.16666666666669 67.88194444444446)"/><use xlink:href="#A" transform="matrix(1,0,0,1,1125,645) translate(67.43827160493828 94.54861111111111)"/><use xlink:href="#r" transform="matrix(1,0,0,1,1125,645) translate(93.30246913580248 94.54861111111111)"/><use xlink:href="#s" transform="matrix(1,0,0,1,1125,645) translate(129.10493827160494 94.54861111111111)"/><use xlink:href="#B" transform="matrix(1,0,0,1,1125,645) translate(200.64814814814815 94.54861111111111)"/><use xlink:href="#C" transform="matrix(1,0,0,1,1125,645) translate(65.61728395061729 121.2152777777778)"/><use xlink:href="#D" transform="matrix(1,0,0,1,1125,645) translate(91.4814814814815 121.2152777777778)"/><use xlink:href="#s" transform="matrix(1,0,0,1,1125,645) translate(130.92592592592592 121.2152777777778)"/><use xlink:href="#w" transform="matrix(1,0,0,1,1125,645) translate(202.46913580246914 121.2152777777778)"/></g><path d="M720 646a6 6 0 0 1 6-6h308a6 6 0 0 1 6 6v148a6 6 0 0 1-6 6H726a6 6 0 0 1-6-6z" stroke="#5e5e5e" stroke-width="3" fill="#fff"/><g><use xlink:href="#j" transform="matrix(1,0,0,1,732,652) translate(64.17283950617283 22.02777777777778)"/><use xlink:href="#k" transform="matrix(1,0,0,1,732,652) translate(90.03703703703704 22.02777777777778)"/><use xlink:href="#l" transform="matrix(1,0,0,1,732,652) translate(127.01234567901234 22.02777777777778)"/><use xlink:href="#m" transform="matrix(1,0,0,1,732,652) translate(167.69135802469137 22.02777777777778)"/><use xlink:href="#n" transform="matrix(1,0,0,1,732,652) translate(59.20370370370371 48.69444444444444)"/><use xlink:href="#k" transform="matrix(1,0,0,1,732,652) translate(85.0679012345679 48.69444444444444)"/><use xlink:href="#o" transform="matrix(1,0,0,1,732,652) translate(122.04320987654322 48.69444444444444)"/><use xlink:href="#p" transform="matrix(1,0,0,1,732,652) translate(207.16666666666669 48.69444444444444)"/><use xlink:href="#q" transform="matrix(1,0,0,1,732,652) translate(54.327160493827165 75.36111111111111)"/><use xlink:href="#v" transform="matrix(1,0,0,1,732,652) translate(80.19135802469137 75.36111111111111)"/><use xlink:href="#s" transform="matrix(1,0,0,1,732,652) translate(128.21604938271605 75.36111111111111)"/><use xlink:href="#t" transform="matrix(1,0,0,1,732,652) translate(199.75925925925927 75.36111111111111)"/><use xlink:href="#u" transform="matrix(1,0,0,1,732,652) translate(60.43827160493828 102.02777777777777)"/><use xlink:href="#r" transform="matrix(1,0,0,1,732,652) translate(86.30246913580248 102.02777777777777)"/><use xlink:href="#s" transform="matrix(1,0,0,1,732,652) translate(122.10493827160494 102.02777777777777)"/><use xlink:href="#t" transform="matrix(1,0,0,1,732,652) translate(193.64814814814815 102.02777777777777)"/><use xlink:href="#E" transform="matrix(1,0,0,1,732,652) translate(58.61728395061729 128.69444444444446)"/><use xlink:href="#D" transform="matrix(1,0,0,1,732,652) translate(84.4814814814815 128.69444444444446)"/><use xlink:href="#s" transform="matrix(1,0,0,1,732,652) translate(123.92592592592592 128.69444444444446)"/><use xlink:href="#w" transform="matrix(1,0,0,1,732,652) translate(195.46913580246914 128.69444444444446)"/></g><path d="M880 602.5V620" stroke="#5e5e5e" stroke-width="2" fill="none"/><path d="M881 602.53h-2v-1.03h2z" stroke="#5e5e5e" stroke-width=".05" fill="#5e5e5e"/><path d="M880 635.26L875.37 621h9.26z" stroke="#5e5e5e" stroke-width="2" fill="#5e5e5e"/><path d="M320 602.5V620" stroke="#5e5e5e" stroke-width="2" fill="none"/><path d="M321 602.53h-2v-1.03h2z" stroke="#5e5e5e" stroke-width=".05" fill="#5e5e5e"/><path d="M320 635.26L315.37 621h9.26z" stroke="#5e5e5e" stroke-width="2" fill="#5e5e5e"/><path d="M1280 402.5V620" stroke="#5e5e5e" stroke-width="2" fill="none"/><path d="M1281 402.53h-2v-1.03h2z" stroke="#5e5e5e" stroke-width=".05" fill="#5e5e5e"/><path d="M1280 635.26l-4.63-14.26h9.27z" stroke="#5e5e5e" stroke-width="2" fill="#5e5e5e"/><defs><path fill="#333" d="M30-248c118-7 216 8 213 122C240-48 200 0 122 0H30v-248zM63-27c89 8 146-16 146-99s-60-101-146-95v194" id="F"/><path fill="#333" d="M24-231v-30h32v30H24zM24 0v-190h32V0H24" id="G"/><path fill="#333" d="M135-143c-3-34-86-38-87 0 15 53 115 12 119 90S17 21 10-45l28-5c4 36 97 45 98 0-10-56-113-15-118-90-4-57 82-63 122-42 12 7 21 19 24 35" id="H"/><path fill="#333" d="M115-194c55 1 70 41 70 98S169 2 115 4C84 4 66-9 55-30l1 105H24l-1-265h31l2 30c10-21 28-34 59-34zm-8 174c40 0 45-34 45-75s-6-73-45-74c-42 0-51 32-51 76 0 43 10 73 51 73" id="I"/><path fill="#333" d="M141-36C126-15 110 5 73 4 37 3 15-17 15-53c-1-64 63-63 125-63 3-35-9-54-41-54-24 1-41 7-42 31l-33-3c5-37 33-52 76-52 45 0 72 20 72 64v82c-1 20 7 32 28 27v20c-31 9-61-2-59-35zM48-53c0 20 12 33 32 33 41-3 63-29 60-74-43 2-92-5-92 41" id="J"/><path fill="#333" d="M59-47c-2 24 18 29 38 22v24C64 9 27 4 27-40v-127H5v-23h24l9-43h21v43h35v23H59v120" id="K"/><path fill="#333" d="M96-169c-40 0-48 33-48 73s9 75 48 75c24 0 41-14 43-38l32 2c-6 37-31 61-74 61-59 0-76-41-82-99-10-93 101-131 147-64 4 7 5 14 7 22l-32 3c-4-21-16-35-41-35" id="L"/><path fill="#333" d="M106-169C34-169 62-67 57 0H25v-261h32l-1 103c12-21 28-36 61-36 89 0 53 116 60 194h-32v-121c2-32-8-49-39-48" id="M"/><g id="a"><use transform="matrix(0.06172839506172839,0,0,0.06172839506172839,0,0)" xlink:href="#F"/><use transform="matrix(0.06172839506172839,0,0,0.06172839506172839,15.987654320987653,0)" xlink:href="#G"/><use transform="matrix(0.06172839506172839,0,0,0.06172839506172839,20.864197530864196,0)" xlink:href="#H"/><use transform="matrix(0.06172839506172839,0,0,0.06172839506172839,31.975308641975307,0)" xlink:href="#I"/><use transform="matrix(0.06172839506172839,0,0,0.06172839506172839,44.32098765432099,0)" xlink:href="#J"/><use transform="matrix(0.06172839506172839,0,0,0.06172839506172839,56.666666666666664,0)" xlink:href="#K"/><use transform="matrix(0.06172839506172839,0,0,0.06172839506172839,62.839506172839506,0)" xlink:href="#L"/><use transform="matrix(0.06172839506172839,0,0,0.06172839506172839,73.95061728395062,0)" xlink:href="#M"/></g><path fill="#333" d="M114-163C36-179 61-72 57 0H25l-1-190h30c1 12-1 29 2 39 6-27 23-49 58-41v29" id="N"/><path fill="#333" d="M100-194c63 0 86 42 84 106H49c0 40 14 67 53 68 26 1 43-12 49-29l28 8c-11 28-37 45-77 45C44 4 14-33 15-96c1-61 26-98 85-98zm52 81c6-60-76-77-97-28-3 7-6 17-6 28h103" id="O"/><path fill="#333" d="M177-190C167-65 218 103 67 71c-23-6-38-20-44-43l32-5c15 47 100 32 89-28v-30C133-14 115 1 83 1 29 1 15-40 15-95c0-56 16-97 71-98 29-1 48 16 59 35 1-10 0-23 2-32h30zM94-22c36 0 50-32 50-73 0-42-14-75-50-75-39 0-46 34-46 75s6 73 46 73" id="P"/><path fill="#333" d="M179-190L93 31C79 59 56 82 12 73V49c39 6 53-20 64-50L1-190h34L92-34l54-156h33" id="Q"/><g id="b"><use transform="matrix(0.06172839506172839,0,0,0.06172839506172839,0,0)" xlink:href="#H"/><use transform="matrix(0.06172839506172839,0,0,0.06172839506172839,11.11111111111111,0)" xlink:href="#K"/><use transform="matrix(0.06172839506172839,0,0,0.06172839506172839,17.28395061728395,0)" xlink:href="#N"/><use transform="matrix(0.06172839506172839,0,0,0.06172839506172839,24.629629629629626,0)" xlink:href="#J"/><use transform="matrix(0.06172839506172839,0,0,0.06172839506172839,36.9753086419753,0)" xlink:href="#K"/><use transform="matrix(0.06172839506172839,0,0,0.06172839506172839,43.148148148148145,0)" xlink:href="#O"/><use transform="matrix(0.06172839506172839,0,0,0.06172839506172839,55.49382716049382,0)" xlink:href="#P"/><use transform="matrix(0.06172839506172839,0,0,0.06172839506172839,67.8395061728395,0)" xlink:href="#Q"/></g><path fill="#333" d="M140-251c81 0 123 46 123 126C263-46 219 4 140 4 59 4 17-45 17-125s42-126 123-126zm0 227c63 0 89-41 89-101s-29-99-89-99c-61 0-89 39-89 99S79-25 140-24" id="R"/><path fill="#333" d="M117-194c89-4 53 116 60 194h-32v-121c0-31-8-49-39-48C34-167 62-67 57 0H25l-1-190h30c1 10-1 24 2 32 11-22 29-35 61-36" id="S"/><path fill="#333" d="M16-82v-28h88v28H16" id="T"/><path fill="#333" d="M85-194c31 0 48 13 60 33l-1-100h32l1 261h-30c-2-10 0-23-3-31C134-8 116 4 85 4 32 4 16-35 15-94c0-66 23-100 70-100zm9 24c-40 0-46 34-46 75 0 40 6 74 45 74 42 0 51-32 51-76 0-42-9-74-50-73" id="U"/><g id="c"><use transform="matrix(0.06172839506172839,0,0,0.06172839506172839,0,0)" xlink:href="#R"/><use transform="matrix(0.06172839506172839,0,0,0.06172839506172839,17.28395061728395,0)" xlink:href="#S"/><use transform="matrix(0.06172839506172839,0,0,0.06172839506172839,29.629629629629626,0)" xlink:href="#T"/><use transform="matrix(0.06172839506172839,0,0,0.06172839506172839,36.9753086419753,0)" xlink:href="#P"/><use transform="matrix(0.06172839506172839,0,0,0.06172839506172839,49.32098765432098,0)" xlink:href="#N"/><use transform="matrix(0.06172839506172839,0,0,0.06172839506172839,56.66666666666666,0)" xlink:href="#G"/><use transform="matrix(0.06172839506172839,0,0,0.06172839506172839,61.5432098765432,0)" xlink:href="#U"/></g><path fill="#333" d="M210-169c-67 3-38 105-44 169h-31v-121c0-29-5-50-35-48C34-165 62-65 56 0H25l-1-190h30c1 10-1 24 2 32 10-44 99-50 107 0 11-21 27-35 58-36 85-2 47 119 55 194h-31v-121c0-29-5-49-35-48" id="V"/><g id="d"><use transform="matrix(0.06172839506172839,0,0,0.06172839506172839,0,0)" xlink:href="#H"/><use transform="matrix(0.06172839506172839,0,0,0.06172839506172839,11.11111111111111,0)" xlink:href="#Q"/><use transform="matrix(0.06172839506172839,0,0,0.06172839506172839,22.22222222222222,0)" xlink:href="#H"/><use transform="matrix(0.06172839506172839,0,0,0.06172839506172839,33.33333333333333,0)" xlink:href="#K"/><use transform="matrix(0.06172839506172839,0,0,0.06172839506172839,39.50617283950617,0)" xlink:href="#O"/><use transform="matrix(0.06172839506172839,0,0,0.06172839506172839,51.85185185185185,0)" xlink:href="#V"/></g><path fill="#333" d="M101-234c-31-9-42 10-38 44h38v23H63V0H32v-167H5v-23h27c-7-52 17-82 69-68v24" id="W"/><g id="e"><use transform="matrix(0.06172839506172839,0,0,0.06172839506172839,0,0)" xlink:href="#R"/><use transform="matrix(0.06172839506172839,0,0,0.06172839506172839,17.28395061728395,0)" xlink:href="#W"/><use transform="matrix(0.06172839506172839,0,0,0.06172839506172839,23.02469135802469,0)" xlink:href="#W"/><use transform="matrix(0.06172839506172839,0,0,0.06172839506172839,29.197530864197528,0)" xlink:href="#T"/><use transform="matrix(0.06172839506172839,0,0,0.06172839506172839,36.54320987654321,0)" xlink:href="#P"/><use transform="matrix(0.06172839506172839,0,0,0.06172839506172839,48.888888888888886,0)" xlink:href="#N"/><use transform="matrix(0.06172839506172839,0,0,0.06172839506172839,56.23456790123456,0)" xlink:href="#G"/><use transform="matrix(0.06172839506172839,0,0,0.06172839506172839,61.11111111111111,0)" xlink:href="#U"/></g><path fill="#333" d="M115-194c53 0 69 39 70 98 0 66-23 100-70 100C84 3 66-7 56-30L54 0H23l1-261h32v101c10-23 28-34 59-34zm-8 174c40 0 45-34 45-75 0-40-5-75-45-74-42 0-51 32-51 76 0 43 10 73 51 73" id="X"/><path fill="#333" d="M24 0v-261h32V0H24" id="Y"/><g id="f"><use transform="matrix(0.06172839506172839,0,0,0.06172839506172839,0,0)" xlink:href="#H"/><use transform="matrix(0.06172839506172839,0,0,0.06172839506172839,11.11111111111111,0)" xlink:href="#K"/><use transform="matrix(0.06172839506172839,0,0,0.06172839506172839,17.28395061728395,0)" xlink:href="#J"/><use transform="matrix(0.06172839506172839,0,0,0.06172839506172839,29.629629629629626,0)" xlink:href="#X"/><use transform="matrix(0.06172839506172839,0,0,0.06172839506172839,41.9753086419753,0)" xlink:href="#Y"/><use transform="matrix(0.06172839506172839,0,0,0.06172839506172839,46.85185185185185,0)" xlink:href="#O"/></g><g id="g"><use transform="matrix(0.06172839506172839,0,0,0.06172839506172839,0,0)" xlink:href="#P"/><use transform="matrix(0.06172839506172839,0,0,0.06172839506172839,12.345679012345679,0)" xlink:href="#N"/><use transform="matrix(0.06172839506172839,0,0,0.06172839506172839,19.691358024691358,0)" xlink:href="#G"/><use transform="matrix(0.06172839506172839,0,0,0.06172839506172839,24.5679012345679,0)" xlink:href="#U"/></g><path fill="#333" d="M100-194c62-1 85 37 85 99 1 63-27 99-86 99S16-35 15-95c0-66 28-99 85-99zM99-20c44 1 53-31 53-75 0-43-8-75-51-75s-53 32-53 75 10 74 51 75" id="Z"/><g id="h"><use transform="matrix(0.06172839506172839,0,0,0.06172839506172839,0,0)" xlink:href="#L"/><use transform="matrix(0.06172839506172839,0,0,0.06172839506172839,11.11111111111111,0)" xlink:href="#Z"/><use transform="matrix(0.06172839506172839,0,0,0.06172839506172839,23.45679012345679,0)" xlink:href="#S"/><use transform="matrix(0.06172839506172839,0,0,0.06172839506172839,35.80246913580247,0)" xlink:href="#S"/><use transform="matrix(0.06172839506172839,0,0,0.06172839506172839,48.148148148148145,0)" xlink:href="#O"/><use transform="matrix(0.06172839506172839,0,0,0.06172839506172839,60.49382716049382,0)" xlink:href="#L"/><use transform="matrix(0.06172839506172839,0,0,0.06172839506172839,71.60493827160494,0)" xlink:href="#K"/><use transform="matrix(0.06172839506172839,0,0,0.06172839506172839,77.77777777777777,0)" xlink:href="#G"/><use transform="matrix(0.06172839506172839,0,0,0.06172839506172839,82.65432098765432,0)" xlink:href="#Z"/><use transform="matrix(0.06172839506172839,0,0,0.06172839506172839,95,0)" xlink:href="#S"/></g><path fill="#333" d="M84 4C-5 8 30-112 23-190h32v120c0 31 7 50 39 49 72-2 45-101 50-169h31l1 190h-30c-1-10 1-25-2-33-11 22-28 36-60 37" id="aa"/><g id="i"><use transform="matrix(0.06172839506172839,0,0,0.06172839506172839,0,0)" xlink:href="#aa"/><use transform="matrix(0.06172839506172839,0,0,0.06172839506172839,12.345679012345679,0)" xlink:href="#S"/><use transform="matrix(0.06172839506172839,0,0,0.06172839506172839,24.691358024691358,0)" xlink:href="#H"/><use transform="matrix(0.06172839506172839,0,0,0.06172839506172839,35.80246913580247,0)" xlink:href="#K"/><use transform="matrix(0.06172839506172839,0,0,0.06172839506172839,41.97530864197531,0)" xlink:href="#J"/><use transform="matrix(0.06172839506172839,0,0,0.06172839506172839,54.32098765432099,0)" xlink:href="#X"/><use transform="matrix(0.06172839506172839,0,0,0.06172839506172839,66.66666666666667,0)" xlink:href="#Y"/><use transform="matrix(0.06172839506172839,0,0,0.06172839506172839,71.54320987654322,0)" xlink:href="#O"/></g><path fill="#333" d="M27 0v-27h64v-190l-56 39v-29l58-41h29v221h61V0H27" id="ab"/><path fill="#333" d="M33-261c38 41 65 92 65 168S71 34 33 75H2C39 34 66-17 66-93S39-220 2-261h31" id="ac"/><g id="j"><use transform="matrix(0.06172839506172839,0,0,0.06172839506172839,0,0)" xlink:href="#ab"/><use transform="matrix(0.06172839506172839,0,0,0.06172839506172839,12.345679012345679,0)" xlink:href="#ac"/></g><path fill="#333" d="M233-177c-1 41-23 64-60 70L243 0h-38l-65-103H63V0H30v-248c88 3 205-21 203 71zM63-129c60-2 137 13 137-47 0-61-80-42-137-45v92" id="ad"/><path fill="#333" d="M30 0v-248h187v28H63v79h144v27H63v87h162V0H30" id="ae"/><g id="k"><use transform="matrix(0.06172839506172839,0,0,0.06172839506172839,0,0)" xlink:href="#ad"/><use transform="matrix(0.06172839506172839,0,0,0.06172839506172839,15.987654320987653,0)" xlink:href="#ae"/></g><g id="l"><use transform="matrix(0.06172839506172839,0,0,0.06172839506172839,0,0)" xlink:href="#H"/><use transform="matrix(0.06172839506172839,0,0,0.06172839506172839,11.11111111111111,0)" xlink:href="#O"/><use transform="matrix(0.06172839506172839,0,0,0.06172839506172839,23.45679012345679,0)" xlink:href="#Y"/><use transform="matrix(0.06172839506172839,0,0,0.06172839506172839,28.333333333333336,0)" xlink:href="#W"/></g><g id="m"><use transform="matrix(0.06172839506172839,0,0,0.06172839506172839,0,0)" xlink:href="#H"/><use transform="matrix(0.06172839506172839,0,0,0.06172839506172839,11.11111111111111,0)" xlink:href="#aa"/><use transform="matrix(0.06172839506172839,0,0,0.06172839506172839,23.45679012345679,0)" xlink:href="#I"/><use transform="matrix(0.06172839506172839,0,0,0.06172839506172839,35.80246913580247,0)" xlink:href="#I"/><use transform="matrix(0.06172839506172839,0,0,0.06172839506172839,48.148148148148145,0)" xlink:href="#Y"/><use transform="matrix(0.06172839506172839,0,0,0.06172839506172839,53.02469135802469,0)" xlink:href="#Q"/></g><path fill="#333" d="M101-251c82-7 93 87 43 132L82-64C71-53 59-42 53-27h129V0H18c2-99 128-94 128-182 0-28-16-43-45-43s-46 15-49 41l-32-3c6-41 34-60 81-64" id="af"/><g id="n"><use transform="matrix(0.06172839506172839,0,0,0.06172839506172839,0,0)" xlink:href="#af"/><use transform="matrix(0.06172839506172839,0,0,0.06172839506172839,12.345679012345679,0)" xlink:href="#ac"/></g><g id="o"><use transform="matrix(0.06172839506172839,0,0,0.06172839506172839,0,0)" xlink:href="#L"/><use transform="matrix(0.06172839506172839,0,0,0.06172839506172839,11.11111111111111,0)" xlink:href="#M"/><use transform="matrix(0.06172839506172839,0,0,0.06172839506172839,23.45679012345679,0)" xlink:href="#J"/><use transform="matrix(0.06172839506172839,0,0,0.06172839506172839,35.80246913580247,0)" xlink:href="#N"/><use transform="matrix(0.06172839506172839,0,0,0.06172839506172839,43.148148148148145,0)" xlink:href="#P"/><use transform="matrix(0.06172839506172839,0,0,0.06172839506172839,55.49382716049382,0)" xlink:href="#O"/><use transform="matrix(0.06172839506172839,0,0,0.06172839506172839,67.8395061728395,0)" xlink:href="#H"/></g><path fill="#333" d="M185-189c-5-48-123-54-124 2 14 75 158 14 163 119 3 78-121 87-175 55-17-10-28-26-33-46l33-7c5 56 141 63 141-1 0-78-155-14-162-118-5-82 145-84 179-34 5 7 8 16 11 25" id="ag"/><g id="p"><use transform="matrix(0.06172839506172839,0,0,0.06172839506172839,0,0)" xlink:href="#ae"/><use transform="matrix(0.06172839506172839,0,0,0.06172839506172839,14.814814814814813,0)" xlink:href="#ag"/></g><path fill="#333" d="M126-127c33 6 58 20 58 59 0 88-139 92-164 29-3-8-5-16-6-25l32-3c6 27 21 44 54 44 32 0 52-15 52-46 0-38-36-46-79-43v-28c39 1 72-4 72-42 0-27-17-43-46-43-28 0-47 15-49 41l-32-3c6-42 35-63 81-64 48-1 79 21 79 65 0 36-21 52-52 59" id="ah"/><g id="q"><use transform="matrix(0.06172839506172839,0,0,0.06172839506172839,0,0)" xlink:href="#ah"/><use transform="matrix(0.06172839506172839,0,0,0.06172839506172839,12.345679012345679,0)" xlink:href="#ac"/></g><g id="r"><use transform="matrix(0.06172839506172839,0,0,0.06172839506172839,0,0)" xlink:href="#ae"/><use transform="matrix(0.06172839506172839,0,0,0.06172839506172839,14.814814814814813,0)" xlink:href="#ag"/></g><path fill="#333" d="M108 0H70L1-190h34L89-25l56-165h34" id="ai"/><g id="s"><use transform="matrix(0.06172839506172839,0,0,0.06172839506172839,0,0)" xlink:href="#L"/><use transform="matrix(0.06172839506172839,0,0,0.06172839506172839,11.11111111111111,0)" xlink:href="#Z"/><use transform="matrix(0.06172839506172839,0,0,0.06172839506172839,23.45679012345679,0)" xlink:href="#ai"/><use transform="matrix(0.06172839506172839,0,0,0.06172839506172839,34.5679012345679,0)" xlink:href="#O"/><use transform="matrix(0.06172839506172839,0,0,0.06172839506172839,46.913580246913575,0)" xlink:href="#N"/><use transform="matrix(0.06172839506172839,0,0,0.06172839506172839,54.25925925925925,0)" xlink:href="#H"/></g><g id="t"><use transform="matrix(0.06172839506172839,0,0,0.06172839506172839,0,0)" xlink:href="#Y"/><use transform="matrix(0.06172839506172839,0,0,0.06172839506172839,4.876543209876543,0)" xlink:href="#Z"/><use transform="matrix(0.06172839506172839,0,0,0.06172839506172839,17.22222222222222,0)" xlink:href="#J"/><use transform="matrix(0.06172839506172839,0,0,0.06172839506172839,29.5679012345679,0)" xlink:href="#U"/></g><path fill="#333" d="M155-56V0h-30v-56H8v-25l114-167h33v167h35v25h-35zm-30-156c-27 46-58 90-88 131h88v-131" id="aj"/><g id="u"><use transform="matrix(0.06172839506172839,0,0,0.06172839506172839,0,0)" xlink:href="#aj"/><use transform="matrix(0.06172839506172839,0,0,0.06172839506172839,12.345679012345679,0)" xlink:href="#ac"/></g><path fill="#333" d="M143 4C61 4 22-44 18-125c-5-107 100-154 193-111 17 8 29 25 37 43l-32 9c-13-25-37-40-76-40-61 0-88 39-88 99 0 61 29 100 91 101 35 0 62-11 79-27v-45h-74v-28h105v86C228-13 192 4 143 4" id="ak"/><g id="v"><use transform="matrix(0.06172839506172839,0,0,0.06172839506172839,0,0)" xlink:href="#ak"/><use transform="matrix(0.06172839506172839,0,0,0.06172839506172839,17.28395061728395,0)" xlink:href="#N"/><use transform="matrix(0.06172839506172839,0,0,0.06172839506172839,24.629629629629626,0)" xlink:href="#G"/><use transform="matrix(0.06172839506172839,0,0,0.06172839506172839,29.50617283950617,0)" xlink:href="#U"/></g><g id="w"><use transform="matrix(0.06172839506172839,0,0,0.06172839506172839,0,0)" xlink:href="#Y"/><use transform="matrix(0.06172839506172839,0,0,0.06172839506172839,4.876543209876543,0)" xlink:href="#Z"/><use transform="matrix(0.06172839506172839,0,0,0.06172839506172839,17.22222222222222,0)" xlink:href="#J"/><use transform="matrix(0.06172839506172839,0,0,0.06172839506172839,29.5679012345679,0)" xlink:href="#U"/></g><g id="x"><use transform="matrix(0.06172839506172839,0,0,0.06172839506172839,0,0)" xlink:href="#H"/><use transform="matrix(0.06172839506172839,0,0,0.06172839506172839,11.11111111111111,0)" xlink:href="#aa"/><use transform="matrix(0.06172839506172839,0,0,0.06172839506172839,23.45679012345679,0)" xlink:href="#I"/><use transform="matrix(0.06172839506172839,0,0,0.06172839506172839,35.80246913580247,0)" xlink:href="#I"/><use transform="matrix(0.06172839506172839,0,0,0.06172839506172839,48.148148148148145,0)" xlink:href="#Y"/><use transform="matrix(0.06172839506172839,0,0,0.06172839506172839,53.02469135802469,0)" xlink:href="#Q"/></g><g id="y"><use transform="matrix(0.06172839506172839,0,0,0.06172839506172839,0,0)" xlink:href="#af"/><use transform="matrix(0.06172839506172839,0,0,0.06172839506172839,12.345679012345679,0)" xlink:href="#ac"/></g><g id="z"><use transform="matrix(0.06172839506172839,0,0,0.06172839506172839,0,0)" xlink:href="#ae"/><use transform="matrix(0.06172839506172839,0,0,0.06172839506172839,14.814814814814813,0)" xlink:href="#ag"/></g><g id="A"><use transform="matrix(0.06172839506172839,0,0,0.06172839506172839,0,0)" xlink:href="#ah"/><use transform="matrix(0.06172839506172839,0,0,0.06172839506172839,12.345679012345679,0)" xlink:href="#ac"/></g><g id="B"><use transform="matrix(0.06172839506172839,0,0,0.06172839506172839,0,0)" xlink:href="#Y"/><use transform="matrix(0.06172839506172839,0,0,0.06172839506172839,4.876543209876543,0)" xlink:href="#Z"/><use transform="matrix(0.06172839506172839,0,0,0.06172839506172839,17.22222222222222,0)" xlink:href="#J"/><use transform="matrix(0.06172839506172839,0,0,0.06172839506172839,29.5679012345679,0)" xlink:href="#U"/></g><g id="C"><use transform="matrix(0.06172839506172839,0,0,0.06172839506172839,0,0)" xlink:href="#aj"/><use transform="matrix(0.06172839506172839,0,0,0.06172839506172839,12.345679012345679,0)" xlink:href="#ac"/></g><g id="D"><use transform="matrix(0.06172839506172839,0,0,0.06172839506172839,0,0)" xlink:href="#F"/><use transform="matrix(0.06172839506172839,0,0,0.06172839506172839,15.987654320987653,0)" xlink:href="#ak"/></g><path fill="#333" d="M54-142c48-35 137-8 131 61C196 18 31 33 14-55l32-4c7 23 22 37 52 37 35-1 51-22 54-58 4-55-73-65-99-34H22l8-134h141v27H59" id="al"/><g id="E"><use transform="matrix(0.06172839506172839,0,0,0.06172839506172839,0,0)" xlink:href="#al"/><use transform="matrix(0.06172839506172839,0,0,0.06172839506172839,12.345679012345679,0)" xlink:href="#ac"/></g></defs></g></svg>